<svg width="20" height="22" viewBox="0 0 20 22" fill="none" xmlns="http://www.w3.org/2000/svg">
<path d="M7.116 13.687C3.562 14.155 1 15.46 1 17C1 18.933 5.029 20.5 10 20.5C14.971 20.5 19 18.933 19 17C19 15.46 16.438 14.155 12.884 13.687" stroke="#323232" stroke-width="1.5" stroke-linecap="round" stroke-linejoin="round"/>
<path d="M16 7.333C16 4.112 13.314 1.5 10 1.5C6.686 1.5 4 4.112 4 7.333C4 11.708 10 16.5 10 16.5C10 16.5 16 11.708 16 7.333Z" stroke="#323232" stroke-width="1.5" stroke-linecap="round" stroke-linejoin="round"/>
<path d="M11.4142 6.08579C12.1953 6.86684 12.1953 8.13317 11.4142 8.91422C10.6332 9.69526 9.36684 9.69526 8.58579 8.91422C7.80474 8.13317 7.80474 6.86684 8.58579 6.08579C9.36684 5.30474 10.6332 5.30474 11.4142 6.08579" stroke="#323232" stroke-width="1.5" stroke-linecap="round" stroke-linejoin="round"/>
</svg>
