<svg width="12" height="11" viewBox="0 0 12 11" fill="none" xmlns="http://www.w3.org/2000/svg">
<path d="M7.09521 7.06L7.50121 6.657C7.87421 6.287 8.46421 6.24 8.89421 6.542C9.31021 6.834 9.68621 7.096 10.0362 7.34C10.5922 7.726 10.6592 8.518 10.1802 8.996L9.82121 9.355" stroke="#323232" stroke-width="1.5" stroke-linecap="round" stroke-linejoin="round"/>
<path d="M2.14502 1.67899L2.50402 1.31999C2.98202 0.841988 3.77402 0.908988 4.16002 1.46399C4.40302 1.81399 4.66502 2.18999 4.95802 2.60599C5.26002 3.03599 5.21402 3.62599 4.84302 3.99899L4.44002 4.40499" stroke="#323232" stroke-width="1.5" stroke-linecap="round" stroke-linejoin="round"/>
<path d="M9.82123 9.35499C8.34023 10.829 5.85123 9.57699 3.88623 7.61099" stroke="#323232" stroke-width="1.5" stroke-linecap="round" stroke-linejoin="round"/>
<path d="M3.88807 7.61399C1.92307 5.64799 0.671067 3.15999 2.14507 1.67899" stroke="#323232" stroke-width="1.5" stroke-linecap="round" stroke-linejoin="round"/>
<path d="M4.43994 4.405C4.75894 4.908 5.16794 5.406 5.62994 5.868L5.63194 5.87C6.09394 6.332 6.59194 6.741 7.09494 7.06" stroke="#323232" stroke-width="1.5" stroke-linecap="round" stroke-linejoin="round"/>
</svg>
