<svg width="24" height="24" viewBox="0 0 24 24" fill="none" xmlns="http://www.w3.org/2000/svg">
<path fill-rule="evenodd" clip-rule="evenodd" d="M7.5 3H16.504C18.987 3 21 5.013 21 7.496V16.505C21 18.987 18.987 21 16.504 21H7.496C5.013 21 3 18.987 3 16.504V7.5C3 5.015 5.015 3 7.5 3V3Z" stroke="#F5F5F5" stroke-width="1.5" stroke-linecap="round" stroke-linejoin="round"/>
<path fill-rule="evenodd" clip-rule="evenodd" d="M10.0939 15.4911L9.28194 12.8171C9.28094 12.8161 6.95594 12.0911 6.95594 12.0911C6.68994 12.0081 6.67694 11.6351 6.93794 11.5351L15.7889 8.12106C16.1159 7.99506 16.4529 8.28206 16.3809 8.62506L14.8939 15.6331C14.8069 16.0441 14.3239 16.2271 13.9869 15.9771L11.8749 14.4171L10.6299 15.6291C10.4549 15.7971 10.1649 15.7221 10.0939 15.4911V15.4911Z" stroke="#F5F5F5" stroke-width="1.5" stroke-linecap="round" stroke-linejoin="round"/>
</svg>
