<svg width="24" height="25" viewBox="0 0 24 25" fill="none" xmlns="http://www.w3.org/2000/svg">
<g clip-path="url(#clip0_40_2758)">
<path d="M18.2041 6.26199C16.5581 4.61499 14.3691 3.70699 12.0371 3.70599C7.23014 3.70599 3.31914 7.61499 3.31814 12.42C3.31614 13.949 3.71714 15.452 4.48114 16.777L3.24414 21.293L7.86614 20.081C9.14514 20.777 10.5771 21.142 12.0331 21.142H12.0371C16.8421 21.142 20.7531 17.232 20.7551 12.427C20.7561 10.099 19.8501 7.90999 18.2041 6.26199Z" stroke="#323232" stroke-width="1.5" stroke-linecap="round" stroke-linejoin="round"/>
<path d="M13.0952 14.06L13.5012 13.657C13.8742 13.287 14.4642 13.24 14.8942 13.542C15.3102 13.834 15.6862 14.096 16.0362 14.34C16.5922 14.726 16.6592 15.518 16.1802 15.996L15.8212 16.355" stroke="#323232" stroke-width="1.5" stroke-linecap="round" stroke-linejoin="round"/>
<path d="M8.14502 8.67899L8.50402 8.31999C8.98202 7.84199 9.77402 7.90899 10.16 8.46399C10.403 8.81399 10.665 9.18999 10.958 9.60599C11.26 10.036 11.214 10.626 10.843 10.999L10.44 11.405" stroke="#323232" stroke-width="1.5" stroke-linecap="round" stroke-linejoin="round"/>
<path d="M15.8212 16.355C14.3402 17.829 11.8512 16.577 9.88623 14.611" stroke="#323232" stroke-width="1.5" stroke-linecap="round" stroke-linejoin="round"/>
<path d="M9.88807 14.614C7.92307 12.648 6.67107 10.16 8.14507 8.67899" stroke="#323232" stroke-width="1.5" stroke-linecap="round" stroke-linejoin="round"/>
<path d="M10.4399 11.405C10.7589 11.908 11.1679 12.406 11.6299 12.868L11.6319 12.87C12.0939 13.332 12.5919 13.741 13.0949 14.06" stroke="#323232" stroke-width="1.5" stroke-linecap="round" stroke-linejoin="round"/>
</g>
<defs>
<clipPath id="clip0_40_2758">
<rect width="24" height="24" fill="white" transform="translate(0 0.5)"/>
</clipPath>
</defs>
</svg>
